<svg class="fig-svg" id="svg-geometry" viewBox="0 0 640 302" role="img" aria-label="Uplink and optical-leg geometry" xmlns="http://www.w3.org/2000/svg"><defs><marker id="geometry-ah-fg" viewBox="0 0 10 10" refX="9.2" refY="5" markerWidth="7.5" markerHeight="7.5" orient="auto-start-reverse" markerUnits="userSpaceOnUse"><path d="M0,1.2 L10,5 L0,8.8 z" class="fl-fg"/></marker><marker id="geometry-ah-m" viewBox="0 0 10 10" refX="9.2" refY="5" markerWidth="7.5" markerHeight="7.5" orient="auto-start-reverse" markerUnits="userSpaceOnUse"><path d="M0,1.2 L10,5 L0,8.8 z" class="fl-m"/></marker><marker id="geometry-ah-orb" viewBox="0 0 10 10" refX="9.2" refY="5" markerWidth="7.5" markerHeight="7.5" orient="auto-start-reverse" markerUnits="userSpaceOnUse"><path d="M0,1.2 L10,5 L0,8.8 z" class="fl-orb"/></marker><marker id="geometry-ah-gnd" viewBox="0 0 10 10" refX="9.2" refY="5" markerWidth="7.5" markerHeight="7.5" orient="auto-start-reverse" markerUnits="userSpaceOnUse"><path d="M0,1.2 L10,5 L0,8.8 z" class="fl-gnd"/></marker></defs><text x="8" y="16" class="tx b">(a) RF uplink: elevation ε and slant range ρ</text><path d="M33.5,198.7A158,158 0 0 1 282.5,198.7" class="st" stroke-width="1.4"/><path d="M21.1,132.8A213,213 0 0 1 294.9,132.8" class="st-m" stroke-dasharray="3 3"/><text x="298.9" y="136.8" class="tx-m s">shell</text><line x1="158" y1="296" x2="158" y2="138" class="st-m" stroke-width="0.8"/><line x1="158" y1="296" x2="227.3" y2="94.6" class="st-m" stroke-width="0.8"/><circle cx="158" cy="296" r="2.4" class="fl-m"/><text x="150" y="294" class="tx-m s end">O</text><path d="M158,262A34,34 0 0 1 169.1,263.9" class="st" stroke-width="0.9"/><text x="166" y="258" class="tx math">θ</text><text x="151" y="204" class="tx math end">R⊕</text><text x="236.3" y="225.3" class="tx math">r = R⊕ + h</text><line x1="88" y1="138" x2="266" y2="138" class="st-m" stroke-dasharray="4 3"/><text x="88" y="133" class="tx-m s">local horizon</text><line x1="158" y1="138" x2="227.3" y2="94.6" class="st-orb" stroke-width="1.8"/><path d="M188,138A30,30 0 0 0 183.4,122.1" class="st" stroke-width="0.9"/><text x="193" y="132" class="tx math">ε</text><text x="184.7" y="110.3" class="tx-orb math end">ρ</text><circle cx="158" cy="138" r="3.2" class="fl-fg"/><text x="152" y="153" class="tx s end">U (you)</text><g transform="translate(227.3 94.6) scale(0.95)"><rect x="-9.5" y="-2.2" width="6" height="4.4" class="fl-orb"/><rect x="3.5" y="-2.2" width="6" height="4.4" class="fl-orb"/><line x1="-3.5" y1="0" x2="3.5" y2="0" class="st-orb" stroke-width="1"/><rect x="-2.6" y="-2.6" width="5.2" height="5.2" class="fl-orb"/></g><text x="240.3" y="85.6" class="tx s">S (backhaul craft)</text><text x="8" y="296" class="tx-m xs">altitude exaggerated</text><text x="342" y="16" class="tx b">(b) Optical leg: straight chord or shell arc</text><circle cx="478" cy="160" r="92" class="box" stroke-width="1.4"/><circle cx="478" cy="160" r="102.5" class="st-m" stroke-dasharray="3 3"/><text x="478" y="164" class="tx-m mid">Earth</text><line x1="438.8" y1="65.3" x2="517.2" y2="65.3" class="st-orb" stroke-width="1.8"/><g transform="translate(438.8 65.3) scale(0.7)"><rect x="-9.5" y="-2.2" width="6" height="4.4" class="fl-orb"/><rect x="3.5" y="-2.2" width="6" height="4.4" class="fl-orb"/><line x1="-3.5" y1="0" x2="3.5" y2="0" class="st-orb" stroke-width="1"/><rect x="-2.6" y="-2.6" width="5.2" height="5.2" class="fl-orb"/></g><g transform="translate(517.2 65.3) scale(0.7)"><rect x="-9.5" y="-2.2" width="6" height="4.4" class="fl-orb"/><rect x="3.5" y="-2.2" width="6" height="4.4" class="fl-orb"/><line x1="-3.5" y1="0" x2="3.5" y2="0" class="st-orb" stroke-width="1"/><rect x="-2.6" y="-2.6" width="5.2" height="5.2" class="fl-orb"/></g><text x="478" y="43.3" class="tx s mid">45° apart: the chord clears Earth</text><text x="478" y="54.3" class="tx-orb s mid">→ straight vacuum line</text><line x1="553.5" y1="229.2" x2="402.5" y2="229.2" class="st-m" stroke-dasharray="3 3" stroke-width="1.1"/><path d="M474,225.2L482,233.2M482,225.2L474,233.2" class="st" stroke-width="1.4"/><path d="M553.5,229.2A102.5,102.5 0 0 1 402.5,229.2" class="st-orb" stroke-width="1.8"/><g transform="translate(553.5 229.2) scale(0.7)"><rect x="-9.5" y="-2.2" width="6" height="4.4" class="fl-orb"/><rect x="3.5" y="-2.2" width="6" height="4.4" class="fl-orb"/><line x1="-3.5" y1="0" x2="3.5" y2="0" class="st-orb" stroke-width="1"/><rect x="-2.6" y="-2.6" width="5.2" height="5.2" class="fl-orb"/></g><g transform="translate(402.5 229.2) scale(0.7)"><rect x="-9.5" y="-2.2" width="6" height="4.4" class="fl-fg"/><rect x="3.5" y="-2.2" width="6" height="4.4" class="fl-fg"/><line x1="-3.5" y1="0" x2="3.5" y2="0" class="st" stroke-width="1"/><rect x="-2.6" y="-2.6" width="5.2" height="5.2" class="fl-fg"/></g><text x="390.5" y="233.2" class="tx s end">Starcloud-2</text><text x="478" y="280.5" class="tx s mid">95° apart: the chord dips below the surface → arc along the shell</text><text x="478" y="296" class="tx-m s mid">true scale at 725 km: the chord clears up to 52.3° apart</text></svg>